<?xml version="1.0" encoding="UTF-8" standalone="no"?>
<!-- Created with Inkscape (http://www.inkscape.org/) -->

<svg
   xmlns:dc="http://purl.org/dc/elements/1.1/"
   xmlns:cc="http://creativecommons.org/ns#"
   xmlns:rdf="http://www.w3.org/1999/02/22-rdf-syntax-ns#"
   xmlns:svg="http://www.w3.org/2000/svg"
   xmlns="http://www.w3.org/2000/svg"
   xmlns:sodipodi="http://sodipodi.sourceforge.net/DTD/sodipodi-0.dtd"
   xmlns:inkscape="http://www.inkscape.org/namespaces/inkscape"
   width="100.99999"
   height="61.340199"
   id="svg2"
   sodipodi:version="0.32"
   inkscape:version="0.47 r22583"
   sodipodi:docname="RightArrow.svg"
   inkscape:output_extension="org.inkscape.output.svg.inkscape"
   version="1.1">
  <defs
     id="defs4">
    <inkscape:perspective
       sodipodi:type="inkscape:persp3d"
       inkscape:vp_x="0 : 526.18109 : 1"
       inkscape:vp_y="0 : 1000 : 0"
       inkscape:vp_z="744.09448 : 526.18109 : 1"
       inkscape:persp3d-origin="372.04724 : 350.78739 : 1"
       id="perspective10" />
    <inkscape:perspective
       id="perspective4110"
       inkscape:persp3d-origin="0.5 : 0.33333333 : 1"
       inkscape:vp_z="1 : 0.5 : 1"
       inkscape:vp_y="0 : 1000 : 0"
       inkscape:vp_x="0 : 0.5 : 1"
       sodipodi:type="inkscape:persp3d" />
  </defs>
  <sodipodi:namedview
     id="base"
     pagecolor="#ffffff"
     bordercolor="#666666"
     borderopacity="1.0"
     gridtolerance="10000"
     guidetolerance="10"
     objecttolerance="10"
     inkscape:pageopacity="0.0"
     inkscape:pageshadow="2"
     inkscape:zoom="0.49497475"
     inkscape:cx="287.05989"
     inkscape:cy="402.21876"
     inkscape:document-units="px"
     inkscape:current-layer="layer1"
     showgrid="false"
     inkscape:window-width="1440"
     inkscape:window-height="825"
     inkscape:window-x="0"
     inkscape:window-y="24"
     inkscape:window-maximized="1" />
  <metadata
     id="metadata7">
    <rdf:RDF>
      <cc:Work
         rdf:about="">
        <dc:format>image/svg+xml</dc:format>
        <dc:type
           rdf:resource="http://purl.org/dc/dcmitype/StillImage" />
      </cc:Work>
    </rdf:RDF>
  </metadata>
  <g
     inkscape:label="Layer 1"
     inkscape:groupmode="layer"
     id="layer1"
     transform="translate(-106.85711,-910.02198)">
    <path
       style="font-size:1000px;font-style:normal;font-variant:normal;font-weight:normal;font-stretch:normal;fill:#999999;fill-opacity:1;stroke:none;font-family:OCRA;-inkscape-font-specification:OCRA"
       d="m 110.90502,910.1281 c 0.21223,-0.0707 0.5306,-0.10605 0.95512,-0.10612 l 1.91025,0.31837 0.21225,0.10613 40.43359,23.77198 c 0.77819,0.4953 1.37956,1.09667 1.80413,1.80412 0.28293,0.4953 0.49518,1.0613 0.63674,1.698 l 0,6.04912 c -0.14156,0.63679 -0.35381,1.20279 -0.63674,1.698 -0.42457,0.70753 -1.02594,1.27353 -1.80413,1.698 l -40.43359,23.77198 c -0.63677,0.28301 -1.41502,0.42451 -2.33475,0.4245 -1.27351,-0.0707 -2.37014,-0.56599 -3.28987,-1.48575 -0.42451,-0.42449 -0.74289,-0.84899 -0.95513,-1.2735 -0.42451,-0.70748 -0.60138,-1.52111 -0.53062,-2.44087 -1e-5,-0.56599 0.0707,-1.02586 0.21225,-1.37962 0.35374,-1.13199 1.02586,-2.01636 2.01637,-2.65313 0.35374,-0.21223 6.50898,-3.82047 18.46574,-10.82474 11.81519,-7.00421 17.75818,-10.5417 17.82898,-10.61249 -5e-5,4e-5 -5.94304,-3.50208 -17.82898,-10.50637 -11.95676,-7.00418 -18.112,-10.6478 -18.46574,-10.93086 -0.99051,-0.63669 -1.66263,-1.48569 -2.01637,-2.547 -0.14151,-0.42444 -0.21226,-0.88431 -0.21225,-1.37963 l 0.21225,-1.91024 c 0.0707,-0.21219 0.17686,-0.42444 0.31837,-0.63675 0.21224,-0.42444 0.53062,-0.84893 0.95513,-1.2735 0.42449,-0.42443 0.81361,-0.70743 1.16737,-0.849 0.49524,-0.28293 0.95511,-0.45981 1.37963,-0.53063"
       id="text7977" />
    <path
       style="font-size:1000px;font-style:normal;font-variant:normal;font-weight:normal;font-stretch:normal;fill:#000000;fill-opacity:1;stroke:none;font-family:OCRA;-inkscape-font-specification:OCRA"
       d="m 161.90502,910.1281 c 0.21223,-0.0707 0.5306,-0.10605 0.95512,-0.10612 l 1.91025,0.31837 0.21225,0.10613 40.43359,23.77198 c 0.77819,0.4953 1.37956,1.09667 1.80413,1.80412 0.28293,0.4953 0.49518,1.0613 0.63674,1.698 l 0,6.04912 c -0.14156,0.63679 -0.35381,1.20279 -0.63674,1.698 -0.42457,0.70753 -1.02594,1.27353 -1.80413,1.698 l -40.43359,23.77198 c -0.63677,0.28301 -1.41502,0.42451 -2.33475,0.4245 -1.27351,-0.0707 -2.37014,-0.56599 -3.28987,-1.48575 -0.42451,-0.42449 -0.74289,-0.84899 -0.95513,-1.2735 -0.42451,-0.70748 -0.60138,-1.52111 -0.53062,-2.44087 -10e-6,-0.56599 0.0707,-1.02586 0.21225,-1.37962 0.35374,-1.13199 1.02586,-2.01636 2.01637,-2.65313 0.35374,-0.21223 6.50898,-3.82047 18.46574,-10.82474 11.81519,-7.00421 17.75819,-10.5417 17.82898,-10.61249 -5e-5,4e-5 -5.94303,-3.50208 -17.82898,-10.50637 -11.95676,-7.00418 -18.112,-10.6478 -18.46574,-10.93086 -0.99051,-0.63669 -1.66263,-1.48569 -2.01637,-2.547 -0.14151,-0.42444 -0.21226,-0.88431 -0.21225,-1.37963 l 0.21225,-1.91024 c 0.0707,-0.21219 0.17686,-0.42444 0.31837,-0.63675 0.21224,-0.42444 0.53062,-0.84893 0.95513,-1.2735 0.42449,-0.42443 0.81361,-0.70743 1.16737,-0.849 0.49524,-0.28293 0.95511,-0.45981 1.37963,-0.53063"
       id="text7977-1" />
  </g>
</svg>
